<?xml version="1.0" encoding="UTF-8" standalone="no"?>
<!-- Generator: Gravit.io -->

<svg
   style="isolation:isolate"
   viewBox="0 0 2500 2500"
   width="2500"
   height="2500"
   version="1.1"
   id="svg2"
   sodipodi:docname="folder_icon.svg"
   inkscape:version="1.4.2 (ebf0e940d0, 2025-05-08)"
   inkscape:export-filename="folder_icon.png"
   inkscape:export-xdpi="2.688"
   inkscape:export-ydpi="2.688"
   xmlns:inkscape="http://www.inkscape.org/namespaces/inkscape"
   xmlns:sodipodi="http://sodipodi.sourceforge.net/DTD/sodipodi-0.dtd"
   xmlns="http://www.w3.org/2000/svg"
   xmlns:svg="http://www.w3.org/2000/svg">
  <sodipodi:namedview
     id="namedview2"
     pagecolor="#ffffff"
     bordercolor="#000000"
     borderopacity="0.25"
     inkscape:showpageshadow="2"
     inkscape:pageopacity="0.0"
     inkscape:pagecheckerboard="0"
     inkscape:deskcolor="#d1d1d1"
     inkscape:zoom="0.2384364"
     inkscape:cx="859.76806"
     inkscape:cy="1272.8761"
     inkscape:window-width="1920"
     inkscape:window-height="1052"
     inkscape:window-x="1920"
     inkscape:window-y="0"
     inkscape:window-maximized="1"
     inkscape:current-layer="svg2"
     inkscape:export-bgcolor="#fbfbfb00"
     showgrid="false" />
  <title
     id="title1">⁸openclipart.org/download/289363/Folder-1.svg</title>
  <defs
     id="defs1">
    <clipPath
       id="_clipPath_GNh0RdoNQ6qTEq5U1h9SgHSlllkPXMnq">
      <rect
         width="2500"
         height="2500"
         id="rect1" />
    </clipPath>
  </defs>
  <g
     clip-path="url(#_clipPath_GNh0RdoNQ6qTEq5U1h9SgHSlllkPXMnq)"
     id="g2"
     style="stroke-width:1.0015748;stroke-dasharray:none">
    <g
       id="Group"
       style="stroke-width:1.0015748;stroke-dasharray:none">
      <path
         d=" M 2205.8 547.4 L 1151.9 547.4 L 917.7 313.2 L 332.2 313.2 C 203.39 313.2 98 418.59 98 547.4 L 98 1015.8 L 2440 1015.8 L 2440 781.6 C 2440 652.79 2334.61 547.4 2205.8 547.4 Z "
         fill="rgb(43,43,43)"
         id="path1"
         inkscape:label="path1"
         style="fill:#d78300;fill-opacity:1;stroke-width:1.0015748;stroke-dasharray:none" />
      <path
         d=" M 2205.8 547.4 L 332.2 547.4 C 203.39 547.4 98 652.79 98 781.6 L 98 1952.6 C 98 2081.41 203.39 2186.8 332.2 2186.8 L 2205.8 2186.8 C 2334.61 2186.8 2440 2081.41 2440 1952.6 L 2440 781.6 C 2440 652.79 2334.61 547.4 2205.8 547.4 Z "
         fill="rgb(63,63,63)"
         id="path2"
         style="fill:#ffa519;fill-opacity:1;stroke-width:1.0015748;stroke-dasharray:none" />
    </g>
  </g>
</svg>
